<svg xmlns="http://www.w3.org/2000/svg" viewBox="0 0 340 225" role="img" aria-label="Secretaria registra las ideas"><rect width="340" height="225" rx="20" fill="#fff3dd"/><circle cx="130" cy="75" r="35" fill="#e9b588"/><path d="M96 69Q100 28 133 32Q162 30 167 65Q143 53 128 45Q112 67 96 69Z" fill="#293950"/><circle cx="118" cy="77" r="3" fill="#26384e"/><circle cx="141" cy="77" r="3" fill="#26384e"/><path d="M121 91q9 8 18 0" fill="none" stroke="#a05b50" stroke-width="3" stroke-linecap="round"/><path d="M88 197q-4-76 43-77 48 0 44 77Z" fill="#e675a3" stroke="#233c58" stroke-width="3"/><path d="M96 135q-27 11-33 47m104-47q31 6 40 37" fill="none" stroke="#e9b588" stroke-width="14" stroke-linecap="round"/><rect x="225" y="91" width="83" height="106" rx="8" fill="#fff" stroke="#7ebdc6" stroke-width="5"/><path d="M239 119h55m-55 17h46m-46 17h55" stroke="#73b6c7" stroke-width="5" stroke-linecap="round"/><path d="m210 190 41-34" stroke="#d48931" stroke-width="8" stroke-linecap="round"/></svg>